<svg width="11" height="11" viewBox="0 0 11 11" fill="none" xmlns="http://www.w3.org/2000/svg">
<path d="M0.787243 2.34628C0.356726 1.91576 0.356727 1.21776 0.787243 0.787243C1.21776 0.356726 1.91576 0.356726 2.34628 0.787243L10.1415 8.58243C10.572 9.01295 10.572 9.71095 10.1415 10.1415C9.71095 10.572 9.01295 10.572 8.58243 10.1415L0.787243 2.34628Z" fill="#272C32"/>
<path d="M8.58243 0.787243C9.01295 0.356726 9.71095 0.356727 10.1415 0.787243C10.572 1.21776 10.572 1.91576 10.1415 2.34628L2.34628 10.1415C1.91576 10.572 1.21776 10.572 0.787243 10.1415C0.356726 9.71095 0.356727 9.01295 0.787243 8.58243L8.58243 0.787243Z" fill="#272C32"/>
</svg>
