<svg width="14" height="14" viewBox="0 0 14 14" fill="none" xmlns="http://www.w3.org/2000/svg">
<path fill-rule="evenodd" clip-rule="evenodd" d="M9.55199 9.55219C7.75057 11.3537 4.82989 11.3537 3.02846 9.55219C1.22704 7.75073 1.22704 4.82999 3.02846 3.02852C4.82989 1.22706 7.75057 1.22706 9.55199 3.02852C11.3534 4.82999 11.3534 7.75073 9.55199 9.55219ZM10.106 11.2921C7.63996 13.1784 4.09782 12.9938 1.84236 10.7383C-0.614122 8.28177 -0.614121 4.29894 1.84236 1.8424C4.29885 -0.614134 8.2816 -0.614134 10.7381 1.8424C12.9934 4.09781 13.1781 7.63981 11.2921 10.1059L14 12.8139L12.8139 14L10.106 11.2921Z" fill="#939393"/>
</svg>
